<svg width="10" height="18" viewBox="0 0 10 18" fill="none" xmlns="http://www.w3.org/2000/svg">
<path fill-rule="evenodd" clip-rule="evenodd" d="M7.25969 3.0078C7.80041 2.98934 8.34 3.00434 8.88186 3.00203H9.10424V0.131259C8.81638 0.101259 8.51385 0.058567 8.21244 0.043567C7.65817 0.0181823 7.10277 -0.00950996 6.54738 0.00318234C5.70073 0.02049 4.90037 0.231644 4.20048 0.745105C3.39786 1.33472 2.95648 2.16434 2.78941 3.1428C2.71942 3.54664 2.70136 3.96549 2.6912 4.37511C2.67539 5.02011 2.68781 5.66511 2.68894 6.30895V6.55126H0V9.75895H2.67426V17.8232H5.94005V9.7728H8.60416C8.74075 8.70434 8.87508 7.64857 9.01506 6.54895C8.79945 6.54895 8.60754 6.5478 8.41451 6.54895C7.65817 6.55126 5.9186 6.54895 5.9186 6.54895C5.9186 6.54895 5.92538 4.9578 5.94457 4.27011C5.97053 3.3228 6.51916 3.03434 7.25969 3.0078Z" fill="#388DFF"/>
</svg>
