<svg width="21" height="14" viewBox="0 0 21 14" fill="none" xmlns="http://www.w3.org/2000/svg">
<path fill-rule="evenodd" clip-rule="evenodd" d="M6.62546 5.6277C6.62207 5.66975 6.61868 5.70156 6.61868 5.73452C6.61868 6.5402 6.62094 8.28679 6.62094 8.28679H10.1396C10.1396 8.54929 9.83029 9.60611 8.84818 10.2777C8.27133 10.6709 7.6245 10.8516 6.93815 10.8959C6.45387 10.9277 5.97749 10.8788 5.5124 10.7288C4.04376 10.2561 2.95215 8.91861 2.80202 7.28906C2.76702 6.88793 2.79186 6.48565 2.88216 6.08906C3.3179 4.16406 5.12972 2.73679 7.20456 3.04588C8.12458 3.18225 8.65401 3.56747 9.13717 3.98338C9.77158 3.34134 10.4004 2.70838 11.0483 2.05611C10.8914 1.94134 10.5279 1.57088 9.88334 1.19475C8.91817 0.633382 7.87736 0.3527 6.76656 0.341336C6.5566 0.339063 6.34663 0.351563 6.13666 0.359518C5.76978 0.374291 5.40855 0.439063 5.05409 0.529973C3.63285 0.894745 2.4532 1.64588 1.52753 2.79475C0.639123 3.89702 0.161616 5.16179 0.0735654 6.57429C0.036313 7.17202 0.0814674 7.76974 0.212415 8.35611C0.58268 9.99475 1.4361 11.3163 2.78395 12.3084C3.82702 13.0788 5.00329 13.4891 6.29244 13.5618C7.0183 13.6004 7.73964 13.5334 8.44631 13.3459C9.76368 13.0004 10.8587 12.3072 11.6805 11.2072C12.8703 9.61179 13.1593 7.56861 12.8082 5.6277H6.62546Z" fill="#388DFF"/>
<path fill-rule="evenodd" clip-rule="evenodd" d="M20.756 5.71598H18.5287V3.4728V3.40689H18.4633H16.8004H16.7338V3.4728V5.71598H14.5077H14.4423V5.78189V7.45348V7.52053H14.5077H16.7338V9.76371V9.82848H16.8004H18.4633H18.5287V9.76371V7.52053H20.756H20.8226V7.45348V5.78189V5.71598H20.756Z" fill="#388DFF"/>
</svg>
