<svg width="526" height="304" viewBox="0 0 526 304" fill="none" xmlns="http://www.w3.org/2000/svg">
<g clip-path="url(#clip0)">
<path d="M246.036 28.6067L244.282 40.1529L517.402 81.6675L519.155 70.1212L246.036 28.6067Z" fill="#F5F5F5"/>
<g filter="url(#filter0_d)">
<path d="M244.275 40.1505L214.026 239.288L487.146 280.802L517.394 81.6651L244.275 40.1505Z" fill="#F5F5F5"/>
</g>
<path d="M254.649 35.8214C254.886 34.2625 253.815 32.8068 252.256 32.5699C250.698 32.333 249.243 33.4047 249.006 34.9636C248.769 36.5225 249.84 37.9783 251.399 38.2152C252.957 38.4521 254.412 37.3804 254.649 35.8214Z" fill="#FF5252"/>
<path d="M262.408 36.9974C262.645 35.4385 261.573 33.9828 260.015 33.7459C258.457 33.509 257.001 34.5807 256.765 36.1396C256.528 37.6986 257.599 39.1543 259.157 39.3912C260.716 39.6281 262.171 38.5564 262.408 36.9974Z" fill="#FFFF00"/>
<path d="M270.167 38.1794C270.403 36.6205 269.332 35.1646 267.774 34.9278C266.215 34.6909 264.76 35.7626 264.523 37.3216C264.287 38.8805 265.358 40.3362 266.916 40.5731C268.475 40.81 269.93 39.7383 270.167 38.1794Z" fill="#69F0AE"/>
<path d="M253.117 59.705L242.157 131.857L487.39 169.133L498.35 96.9808L253.117 59.705Z" fill="url(#paint0_linear)"/>
<path d="M495.523 99.5013L255.579 63.0294L245.422 129.891L485.367 166.362L495.523 99.5013Z" fill="#388DFF"/>
<path d="M279.754 166.108L277.635 180.058L293.985 182.544L296.104 168.593L279.754 166.108Z" fill="url(#paint1_linear)"/>
<path d="M295.732 169.52L280.346 167.181L278.592 178.728L293.978 181.066L295.732 169.52Z" fill="#388DFF"/>
<path d="M292.728 189.242L277.342 186.903L275.588 198.45L290.974 200.788L292.728 189.242Z" fill="#FF5252"/>
<path d="M289.736 208.965L274.35 206.626L272.596 218.172L287.982 220.511L289.736 208.965Z" fill="#FF9800"/>
<path opacity="0.4" d="M444.906 194.655L320.849 175.798L319.827 182.53L443.883 201.387L444.906 194.655Z" fill="#388DFF"/>
<path opacity="0.4" d="M441.908 214.378L317.851 195.521L316.828 202.253L440.885 221.109L441.908 214.378Z" fill="#388DFF"/>
<path opacity="0.4" d="M438.915 234.101L314.859 215.244L313.836 221.975L437.893 240.832L438.915 234.101Z" fill="#388DFF"/>
<path d="M293.435 5.20387L6.39341 69.387L8.89919 80.601L295.941 16.4179L293.435 5.20387Z" fill="#F5F5F5"/>
<g filter="url(#filter1_d)">
<path d="M295.939 16.4244L8.89721 80.6075L52.1207 274.044L339.162 209.861L295.939 16.4244Z" fill="#F5F5F5"/>
</g>
<path d="M15.266 76.1664C16.9024 75.8005 17.9549 74.2769 17.6167 72.7634C17.2785 71.2499 15.6777 70.3196 14.0413 70.6855C12.4049 71.0514 11.3524 72.575 11.6906 74.0885C12.0288 75.602 13.6296 76.5323 15.266 76.1664Z" fill="#FF5252"/>
<path d="M23.4226 74.348C25.0591 73.9821 26.1115 72.4585 25.7733 70.945C25.4351 69.4315 23.8344 68.5012 22.1979 68.8671C20.5615 69.233 19.5091 70.7566 19.8472 72.2701C20.1854 73.7836 21.7862 74.7139 23.4226 74.348Z" fill="#FFFF00"/>
<path d="M31.5735 72.525C33.21 72.1591 34.2624 70.6355 33.9242 69.122C33.586 67.6085 31.9853 66.6782 30.3488 67.0441C28.7124 67.41 27.66 68.9336 27.9982 70.4471C28.3364 71.9606 29.9371 72.8909 31.5735 72.525Z" fill="#69F0AE"/>
<path d="M282.62 37.5531L24.8877 95.1826L40.5489 165.27L298.281 107.641L282.62 37.5531Z" fill="url(#paint2_linear)"/>
<path d="M280.721 40.9189L28.5484 97.3053L43.0604 162.25L295.233 105.864L280.721 40.9189Z" fill="#388DFF"/>
<path d="M107.758 178.692L90.5763 182.534L93.6035 196.081L110.786 192.239L107.758 178.692Z" fill="url(#paint3_linear)"/>
<path d="M109.067 180.509L92.8255 184.157L95.3527 195.418L111.594 191.77L109.067 180.509Z" fill="#388DFF"/>
<path d="M111.997 198.839L95.8233 202.455L98.3291 213.669L114.503 210.053L111.997 198.839Z" fill="#FF5252"/>
<path d="M117.739 218.964L101.498 222.611L104.025 233.872L120.266 230.224L117.739 218.964Z" fill="#FF9800"/>
<path opacity="0.4" d="M265.396 146.874L135.017 176.027L136.479 182.569L266.858 153.415L265.396 146.874Z" fill="#388DFF"/>
<path opacity="0.4" d="M269.676 166.034L139.297 195.187L140.759 201.728L271.138 172.575L269.676 166.034Z" fill="#388DFF"/>
<path opacity="0.4" d="M273.956 185.188L143.577 214.341L145.039 220.882L275.418 191.729L273.956 185.188Z" fill="#388DFF"/>
<path d="M433.441 10.8563H99.8759V24.9554H433.441V10.8563Z" fill="#F5F5F5"/>
<g filter="url(#filter2_d)">
<path d="M433.441 24.9554H99.8759V268.165H433.441V24.9554Z" fill="white"/>
</g>
<path d="M108.021 21.3543C109.925 21.3543 111.468 19.8104 111.468 17.9059C111.468 16.0014 109.925 14.4575 108.021 14.4575C106.117 14.4575 104.574 16.0014 104.574 17.9059C104.574 19.8104 106.117 21.3543 108.021 21.3543Z" fill="#FF5252"/>
<path d="M117.494 21.3543C119.398 21.3543 120.941 19.8104 120.941 17.9059C120.941 16.0014 119.398 14.4575 117.494 14.4575C115.59 14.4575 114.047 16.0014 114.047 17.9059C114.047 19.8104 115.59 21.3543 117.494 21.3543Z" fill="#FFFF00"/>
<path d="M126.966 21.3543C128.87 21.3543 130.414 19.8104 130.414 17.9059C130.414 16.0014 128.87 14.4575 126.966 14.4575C125.062 14.4575 123.519 16.0014 123.519 17.9059C123.519 19.8104 125.062 21.3543 126.966 21.3543Z" fill="#69F0AE"/>
<path d="M413.474 46.6915H113.97V134.811H413.474V46.6915Z" fill="url(#paint4_linear)"/>
<path d="M410.538 50.2163H117.494V131.874H410.538V50.2163Z" fill="#388DFF"/>
<path d="M185.029 168.884H165.062V185.92H185.029V168.884Z" fill="url(#paint5_linear)"/>
<path d="M184.735 170.059H165.943V184.158H184.735V170.059Z" fill="#388DFF"/>
<path d="M184.735 194.145H165.943V208.244H184.735V194.145Z" fill="#FF5252"/>
<path d="M184.735 218.231H165.943V232.33H184.735V218.231Z" fill="#FF9800"/>
<path opacity="0.4" d="M367.374 172.996H215.86V181.22H367.374V172.996Z" fill="#388DFF"/>
<path opacity="0.4" d="M367.374 197.082H215.86V205.306H367.374V197.082Z" fill="#388DFF"/>
<path opacity="0.4" d="M367.374 221.168H215.86V229.392H367.374V221.168Z" fill="#388DFF"/>
<g filter="url(#filter3_d)">
<path d="M240.232 199.432C240.232 191.641 243.325 184.17 248.832 178.662C254.339 173.153 261.807 170.059 269.595 170.059C277.383 170.059 284.851 173.153 290.358 178.662C295.865 184.17 298.958 191.641 298.958 199.432V218.23H307.18V199.432C307.18 189.46 303.22 179.897 296.172 172.846C289.123 165.795 279.563 161.834 269.595 161.834C259.627 161.834 250.067 165.795 243.018 172.846C235.97 179.897 232.01 189.46 232.01 199.432V218.23H240.232V199.432Z" fill="#FFDF44"/>
</g>
<path d="M320.687 217.056H218.503V300.475H320.687V217.056Z" fill="#388DFF"/>
<g filter="url(#filter4_d)">
<path d="M320.687 217.056H218.503V300.475H320.687V217.056Z" fill="#FFDF44"/>
</g>
<path d="M320.687 233.505H218.503V284.026H320.687V233.505Z" fill="#388DFF"/>
<path d="M277.094 249.225C277.1 247.999 276.805 246.789 276.235 245.704C275.664 244.618 274.837 243.689 273.824 242.998C272.811 242.306 271.644 241.874 270.425 241.739C269.207 241.604 267.974 241.771 266.834 242.223C265.695 242.676 264.684 243.402 263.89 244.337C263.096 245.271 262.544 246.387 262.281 247.585C262.019 248.783 262.054 250.027 262.384 251.208C262.714 252.389 263.329 253.471 264.175 254.359V270.35C264.175 271.796 264.749 273.183 265.771 274.205C266.793 275.227 268.179 275.802 269.624 275.802C271.07 275.802 272.456 275.227 273.478 274.205C274.5 273.183 275.074 271.796 275.074 270.35V254.359C276.379 252.969 277.102 251.132 277.094 249.225Z" fill="url(#paint6_linear)"/>
<path opacity="0.2" d="M276.055 250.541C276.057 249.486 275.8 248.446 275.308 247.513C274.815 246.579 274.102 245.781 273.23 245.187C272.358 244.593 271.354 244.222 270.305 244.106C269.257 243.99 268.196 244.133 267.215 244.522C266.234 244.911 265.364 245.534 264.679 246.337C263.995 247.14 263.517 248.098 263.289 249.128C263.06 250.159 263.087 251.229 263.367 252.247C263.648 253.264 264.173 254.197 264.897 254.965V268.752C264.897 269.999 265.392 271.194 266.273 272.075C267.154 272.957 268.349 273.452 269.595 273.452C270.841 273.452 272.036 272.957 272.917 272.075C273.798 271.194 274.293 269.999 274.293 268.752V254.965C275.422 253.768 276.052 252.186 276.055 250.541Z" fill="black"/>
</g>
<defs>
<filter id="filter0_d" x="195.026" y="24.1505" width="343.368" height="280.652" filterUnits="userSpaceOnUse" color-interpolation-filters="sRGB">
<feFlood flood-opacity="0" result="BackgroundImageFix"/>
<feColorMatrix in="SourceAlpha" type="matrix" values="0 0 0 0 0 0 0 0 0 0 0 0 0 0 0 0 0 0 127 0"/>
<feOffset dx="1" dy="4"/>
<feGaussianBlur stdDeviation="10"/>
<feColorMatrix type="matrix" values="0 0 0 0 0 0 0 0 0 0 0 0 0 0 0 0 0 0 0.1 0"/>
<feBlend mode="normal" in2="BackgroundImageFix" result="effect1_dropShadow"/>
<feBlend mode="normal" in="SourceGraphic" in2="effect1_dropShadow" result="shape"/>
</filter>
<filter id="filter1_d" x="-10.1028" y="0.424362" width="370.265" height="297.619" filterUnits="userSpaceOnUse" color-interpolation-filters="sRGB">
<feFlood flood-opacity="0" result="BackgroundImageFix"/>
<feColorMatrix in="SourceAlpha" type="matrix" values="0 0 0 0 0 0 0 0 0 0 0 0 0 0 0 0 0 0 127 0"/>
<feOffset dx="1" dy="4"/>
<feGaussianBlur stdDeviation="10"/>
<feColorMatrix type="matrix" values="0 0 0 0 0 0 0 0 0 0 0 0 0 0 0 0 0 0 0.1 0"/>
<feBlend mode="normal" in2="BackgroundImageFix" result="effect1_dropShadow"/>
<feBlend mode="normal" in="SourceGraphic" in2="effect1_dropShadow" result="shape"/>
</filter>
<filter id="filter2_d" x="80.8759" y="8.9554" width="373.566" height="283.209" filterUnits="userSpaceOnUse" color-interpolation-filters="sRGB">
<feFlood flood-opacity="0" result="BackgroundImageFix"/>
<feColorMatrix in="SourceAlpha" type="matrix" values="0 0 0 0 0 0 0 0 0 0 0 0 0 0 0 0 0 0 127 0"/>
<feOffset dx="1" dy="4"/>
<feGaussianBlur stdDeviation="10"/>
<feColorMatrix type="matrix" values="0 0 0 0 0 0 0 0 0 0 0 0 0 0 0 0 0 0 0.1 0"/>
<feBlend mode="normal" in2="BackgroundImageFix" result="effect1_dropShadow"/>
<feBlend mode="normal" in="SourceGraphic" in2="effect1_dropShadow" result="shape"/>
</filter>
<filter id="filter3_d" x="213.01" y="145.834" width="115.17" height="96.3964" filterUnits="userSpaceOnUse" color-interpolation-filters="sRGB">
<feFlood flood-opacity="0" result="BackgroundImageFix"/>
<feColorMatrix in="SourceAlpha" type="matrix" values="0 0 0 0 0 0 0 0 0 0 0 0 0 0 0 0 0 0 127 0"/>
<feOffset dx="1" dy="4"/>
<feGaussianBlur stdDeviation="10"/>
<feColorMatrix type="matrix" values="0 0 0 0 0 0 0 0 0 0 0 0 0 0 0 0 0 0 0.1 0"/>
<feBlend mode="normal" in2="BackgroundImageFix" result="effect1_dropShadow"/>
<feBlend mode="normal" in="SourceGraphic" in2="effect1_dropShadow" result="shape"/>
</filter>
<filter id="filter4_d" x="199.503" y="201.056" width="142.184" height="123.42" filterUnits="userSpaceOnUse" color-interpolation-filters="sRGB">
<feFlood flood-opacity="0" result="BackgroundImageFix"/>
<feColorMatrix in="SourceAlpha" type="matrix" values="0 0 0 0 0 0 0 0 0 0 0 0 0 0 0 0 0 0 127 0"/>
<feOffset dx="1" dy="4"/>
<feGaussianBlur stdDeviation="10"/>
<feColorMatrix type="matrix" values="0 0 0 0 0 0 0 0 0 0 0 0 0 0 0 0 0 0 0.1 0"/>
<feBlend mode="normal" in2="BackgroundImageFix" result="effect1_dropShadow"/>
<feBlend mode="normal" in="SourceGraphic" in2="effect1_dropShadow" result="shape"/>
</filter>
<linearGradient id="paint0_linear" x1="40416.4" y1="118050" x2="45048.7" y2="87574.4" gradientUnits="userSpaceOnUse">
<stop stop-color="#808080" stop-opacity="0.25"/>
<stop offset="0.54" stop-color="#808080" stop-opacity="0.12"/>
<stop offset="1" stop-color="#808080" stop-opacity="0.1"/>
</linearGradient>
<linearGradient id="paint1_linear" x1="8200.8" y1="10028.9" x2="8260.52" y2="9636.01" gradientUnits="userSpaceOnUse">
<stop stop-color="#808080" stop-opacity="0.25"/>
<stop offset="0.54" stop-color="#808080" stop-opacity="0.12"/>
<stop offset="1" stop-color="#808080" stop-opacity="0.1"/>
</linearGradient>
<linearGradient id="paint2_linear" x1="116907" y1="4411.61" x2="114991" y2="-4156.33" gradientUnits="userSpaceOnUse">
<stop stop-color="#808080" stop-opacity="0.25"/>
<stop offset="0.54" stop-color="#808080" stop-opacity="0.12"/>
<stop offset="1" stop-color="#808080" stop-opacity="0.1"/>
</linearGradient>
<linearGradient id="paint3_linear" x1="6651.15" y1="5631.34" x2="6579.57" y2="5311.23" gradientUnits="userSpaceOnUse">
<stop stop-color="#808080" stop-opacity="0.25"/>
<stop offset="0.54" stop-color="#808080" stop-opacity="0.12"/>
<stop offset="1" stop-color="#808080" stop-opacity="0.1"/>
</linearGradient>
<linearGradient id="paint4_linear" x1="134612" y1="20268.3" x2="134612" y2="7050.42" gradientUnits="userSpaceOnUse">
<stop stop-color="#808080" stop-opacity="0.25"/>
<stop offset="0.54" stop-color="#808080" stop-opacity="0.12"/>
<stop offset="1" stop-color="#808080" stop-opacity="0.1"/>
</linearGradient>
<linearGradient id="paint5_linear" x1="6116.61" y1="5560.57" x2="6116.61" y2="5066.51" gradientUnits="userSpaceOnUse">
<stop stop-color="#808080" stop-opacity="0.25"/>
<stop offset="0.54" stop-color="#808080" stop-opacity="0.12"/>
<stop offset="1" stop-color="#808080" stop-opacity="0.1"/>
</linearGradient>
<linearGradient id="paint6_linear" x1="9422.57" y1="22778.2" x2="9422.57" y2="20799.9" gradientUnits="userSpaceOnUse">
<stop stop-color="#808080" stop-opacity="0.25"/>
<stop offset="0.54" stop-color="#808080" stop-opacity="0.12"/>
<stop offset="1" stop-color="#808080" stop-opacity="0.1"/>
</linearGradient>
<clipPath id="clip0">
<path d="M0 0H526V304H0V0Z" fill="white"/>
</clipPath>
</defs>
</svg>
