<svg width="15" height="16" viewBox="0 0 15 16" fill="none" xmlns="http://www.w3.org/2000/svg">
<path fill-rule="evenodd" clip-rule="evenodd" d="M12.1394 3.61348C12.1383 4.1297 11.7486 4.5376 11.2571 4.5376C10.7667 4.5376 10.3792 4.132 10.3759 3.61464C10.3726 3.09266 10.7678 2.67785 11.2659 2.6813C11.753 2.68476 12.1416 3.09842 12.1394 3.61348ZM7.32075 10.2897C5.99294 10.2874 4.91033 9.13167 4.91033 7.71669C4.91143 6.30171 6.0028 5.16213 7.35578 5.16213C8.69782 5.16213 9.78262 6.31209 9.78262 7.73628C9.78153 9.15818 8.68797 10.2909 7.32075 10.2897ZM7.34593 3.76213C5.26391 3.76097 3.57924 5.53546 3.58033 7.73167C3.58143 9.91406 5.26172 11.6874 7.33717 11.6909C9.42248 11.6955 11.1126 9.92213 11.1137 7.73167C11.1137 5.53546 9.43015 3.76213 7.34593 3.76213ZM13.2176 11.6044C13.0228 12.9526 12.1701 13.7903 10.8806 13.9389C9.69614 14.0749 4.40461 14.1498 3.30558 13.826C2.25362 13.5183 1.65266 12.7567 1.47861 11.6425C1.31112 10.5789 1.26953 5.26237 1.47642 3.83933C1.67017 2.5004 2.52071 1.66616 3.80364 1.51406C5.10409 1.36081 9.7881 1.34468 11.0338 1.54748C12.3145 1.75143 13.1082 2.65134 13.2483 4.01102C13.3796 5.27966 13.4169 10.2402 13.2176 11.6044ZM14.5706 3.87735C14.4721 2.85875 14.101 1.95999 13.3829 1.23867C12.6265 0.478176 11.7026 0.142867 10.689 0.0875586C8.96273 -0.011536 4.86436 -0.0749105 3.4238 0.172826C1.77963 0.453978 0.701404 1.46567 0.24603 3.17562C-0.104258 4.49036 -0.0342005 10.5524 0.169404 11.8545C0.44854 13.6324 1.44686 14.7732 3.12058 15.2271C4.27982 15.5417 9.97309 15.5002 11.2516 15.2836C12.9418 14.9955 14.031 13.9504 14.4688 12.1909C14.806 10.8405 14.6877 5.0953 14.5706 3.87735Z" fill="#388DFF"/>
</svg>
