<svg width="174" height="50" viewBox="0 0 174 50" fill="none" xmlns="http://www.w3.org/2000/svg">
<rect x="1" y="1" width="171.911" height="48" fill="white" stroke="#388DFF" stroke-width="2"/>
<path d="M45.7489 37H60.6467V32.9432H50.6694V13.7273H45.7489V37ZM84.3853 25.3636C84.3853 17.75 79.658 13.4091 73.4876 13.4091C67.283 13.4091 62.5898 17.75 62.5898 25.3636C62.5898 32.9432 67.283 37.3182 73.4876 37.3182C79.658 37.3182 84.3853 32.9773 84.3853 25.3636ZM79.3967 25.3636C79.3967 30.2955 77.0557 32.9659 73.4876 32.9659C69.908 32.9659 67.5785 30.2955 67.5785 25.3636C67.5785 20.4318 69.908 17.7614 73.4876 17.7614C77.0557 17.7614 79.3967 20.4318 79.3967 25.3636ZM103.462 21.25H108.462C107.826 16.6477 103.769 13.4091 98.5074 13.4091C92.3597 13.4091 87.6211 17.8409 87.6211 25.3864C87.6211 32.75 92.0529 37.3182 98.6097 37.3182C104.485 37.3182 108.678 33.6023 108.678 27.4773V24.5455H98.9393V28.25H103.939C103.871 31.1364 101.905 32.9659 98.6324 32.9659C94.9393 32.9659 92.6097 30.2045 92.6097 25.3409C92.6097 20.5 95.0302 17.7614 98.587 17.7614C101.121 17.7614 102.837 19.0682 103.462 21.25ZM133.76 25.3636C133.76 17.75 129.033 13.4091 122.863 13.4091C116.658 13.4091 111.965 17.75 111.965 25.3636C111.965 32.9432 116.658 37.3182 122.863 37.3182C129.033 37.3182 133.76 32.9773 133.76 25.3636ZM128.772 25.3636C128.772 30.2955 126.431 32.9659 122.863 32.9659C119.283 32.9659 116.953 30.2955 116.953 25.3636C116.953 20.4318 119.283 17.7614 122.863 17.7614C126.431 17.7614 128.772 20.4318 128.772 25.3636Z" fill="#388DFF"/>
</svg>
