<svg width="17" height="14" viewBox="0 0 17 14" fill="none" xmlns="http://www.w3.org/2000/svg">
<path fill-rule="evenodd" clip-rule="evenodd" d="M5.46832 10.6942C3.73136 10.6328 2.6469 9.3885 2.3593 8.376C2.84128 8.46804 3.31758 8.44759 3.79047 8.33281C3.80298 8.33054 3.81548 8.32145 3.83821 8.31009C2.89812 8.09304 2.17401 7.58963 1.66815 6.77827C1.33281 6.24077 1.1748 5.651 1.17935 5.001C1.64883 5.25213 2.13877 5.39191 2.66622 5.40668C1.95916 4.89759 1.484 4.23281 1.29075 3.38168C1.09751 2.53168 1.22368 1.72259 1.64883 0.960087C3.45854 3.09191 5.74909 4.26009 8.5421 4.44986C8.52391 4.31918 8.50231 4.20327 8.48867 4.08622C8.39545 3.301 8.55233 2.56691 8.97633 1.901C9.50833 1.06804 10.2688 0.548724 11.243 0.391905C12.3661 0.207815 13.3483 0.527133 14.1679 1.32259C14.2236 1.376 14.2702 1.39418 14.3475 1.376C15.0329 1.226 15.6809 0.979405 16.2913 0.628269C16.305 0.620315 16.3198 0.611224 16.3357 0.606678C16.3379 0.604405 16.3436 0.604405 16.3573 0.604405C16.0924 1.38054 15.6116 1.98054 14.9261 2.42259C15.574 2.35213 16.1913 2.17827 16.787 1.92145C16.7926 1.92827 16.7961 1.93168 16.8006 1.93509C16.6721 2.10441 16.5494 2.27486 16.4164 2.43736C16.0617 2.87486 15.6548 3.25895 15.2023 3.59191C15.1625 3.62031 15.1455 3.64645 15.1466 3.69759C15.1648 4.19304 15.1455 4.68736 15.0841 5.18054C14.9557 6.21804 14.6658 7.20781 14.2224 8.15441C13.7655 9.12941 13.1675 10.0124 12.4161 10.7885C11.1441 12.1044 9.61064 12.951 7.82367 13.3453C7.21209 13.4805 6.58915 13.5499 5.9628 13.5669C4.03487 13.6237 2.25358 13.1442 0.614386 12.134C0.593924 12.1215 0.572326 12.1055 0.53595 12.0817C1.70226 12.2078 2.81059 12.0567 3.87914 11.6192C4.44638 11.3885 4.97156 11.084 5.46832 10.6942Z" fill="#388DFF"/>
</svg>
